<svg width="48" height="48" viewBox="0 0 48 48" fill="none" xmlns="http://www.w3.org/2000/svg">
<path d="M38.4 27.3716C40.9347 29.2654 43.2 34.0335 43.2 36.9715C43.2 37.8867 42.5323 38.6287 41.7085 38.6287H40.8M31.2 19.6091C32.8397 18.6606 33.9429 16.8878 33.9429 14.8573C33.9429 12.8268 32.8397 11.054 31.2 10.1055M6.29159 38.6287H32.5657C33.3894 38.6287 34.0572 37.8867 34.0572 36.9715C34.0572 31.2182 29.2507 26.5543 19.4286 26.5543C9.60658 26.5543 4.80005 31.2182 4.80005 36.9715C4.80005 37.8867 5.46783 38.6287 6.29159 38.6287ZM24.9143 14.8573C24.9143 17.887 22.4583 20.343 19.4286 20.343C16.3989 20.343 13.9429 17.887 13.9429 14.8573C13.9429 11.8276 16.3989 9.37158 19.4286 9.37158C22.4583 9.37158 24.9143 11.8276 24.9143 14.8573Z" stroke="#05232E" stroke-width="3" stroke-linecap="round"/>
</svg>
